<svg xmlns="http://www.w3.org/2000/svg" width="18" height="24" viewBox="0 0 18 24"><defs><style>.a{fill:#fff;}</style></defs><path class="a" d="M-.937,2.531Q-2.062.891-3.492-1.172T-5.531-4.078q-.609-.844-1.406-2.086T-7.992-7.922q-.258-.516-.562-1.312a5.973,5.973,0,0,1-.375-1.383A11.788,11.788,0,0,1-9-12a8.679,8.679,0,0,1,2.625-6.375A8.679,8.679,0,0,1,0-21a8.679,8.679,0,0,1,6.375,2.625A8.679,8.679,0,0,1,9-12a11.788,11.788,0,0,1-.07,1.383,5.973,5.973,0,0,1-.375,1.383q-.3.8-.562,1.313T6.938-6.164q-.8,1.242-1.406,2.086T3.492-1.172Q2.062.891.938,2.531A1.076,1.076,0,0,1,0,3,1.076,1.076,0,0,1-.937,2.531ZM-2.648-9.352A3.611,3.611,0,0,0,0-8.25a3.611,3.611,0,0,0,2.648-1.1A3.611,3.611,0,0,0,3.75-12a3.611,3.611,0,0,0-1.1-2.648A3.611,3.611,0,0,0,0-15.75a3.611,3.611,0,0,0-2.648,1.1A3.611,3.611,0,0,0-3.75-12,3.611,3.611,0,0,0-2.648-9.352Z" transform="translate(9 21)"/></svg>