<svg xmlns="http://www.w3.org/2000/svg" width="171.643" height="40" viewBox="0 0 171.643 40"><defs><style>.a{fill:#006685;}.b,.d{fill:#08acde;}.b,.c{fill-rule:evenodd;}.c{fill:#f9c00d;}</style></defs><g transform="translate(313 295)"><g transform="translate(-249 -374.545)"><path class="a" d="M72.973,113.882a15.709,15.709,0,0,1-1.3,2.167l-1.305-1.305a15.945,15.945,0,0,0,1.584-2.893,13.9,13.9,0,0,0,.992-3.023H71v-1.766h1.975v-3.289h2.21v3.289H76.4v1.766H75.182v1.3a12.057,12.057,0,0,0,1.679,1.557l-.8,1.784a6.49,6.49,0,0,1-.879-.835v6.943h-2.21Zm7.822,1.236a15.9,15.9,0,0,1-3.741,3.584l-1.3-1.566a18.572,18.572,0,0,0,2.462-2.34,16.075,16.075,0,0,0,1.862-2.515h-3.15V110.2H80.76v-1.923h-1.6a6.984,6.984,0,0,1-1.088,1.853l-1.784-.9a12.073,12.073,0,0,0,1.118-2.449,12.694,12.694,0,0,0,.648-2.736l2.228.192a15.685,15.685,0,0,1-.4,2.01h.879v-2.532h2.393v2.532h3.576v2.036H83.152V110.2h4.028v2.079H83.813a17.563,17.563,0,0,0,1.427,1.971,23.009,23.009,0,0,0,2.688,2.6l-1.54,1.906a18.68,18.68,0,0,1-3.289-3.8v4.5H80.794Z" transform="translate(-33.542 -0.079)"/><path class="a" d="M115.362,115.856l-.018,2.053q-.6.174-4.245.592t-5.142.531l-.374-2.176q1.087-.052,3.637-.278v-4.5h-2.941v-1.992h7.943v1.992h-2.584v4.263q2.942-.313,3.724-.487m6.508-7.143H116.99a28.6,28.6,0,0,0,.3,3.045,12.958,12.958,0,0,0,.583,2.353,7.879,7.879,0,0,0,.844,1.727,3.574,3.574,0,0,0,.613.783.51.51,0,0,0,.235.078.285.285,0,0,0,.3-.278q.044-.278.183-2.932l1.957.409q-.1,2.35-.222,3.559a2.46,2.46,0,0,1-.579,1.6,1.851,1.851,0,0,1-1.253.392,2.657,2.657,0,0,1-1.427-.4,6.8,6.8,0,0,1-1.588-1.64,9.981,9.981,0,0,1-1.505-3.037,27.068,27.068,0,0,1-.857-5.655h-9.032v-1.975h8.944q.009-.444.009-1.235l-.009-1.906h2.445v3.141h2.036q-.592-.783-1.74-2.158l1.784-1.035a27.885,27.885,0,0,1,2.245,2.584l-.939.609h1.549Z" transform="translate(-50.309)"/><path class="a" d="M144.813,117.206q3.437-.183,5.464-.374-.853-1.044-1.522-1.766l1.157-.626h-3.445q-.766,1.419-1.653,2.767m6.917,1.505q-4.132.461-11.684.844l-.374-2.141,2.271-.079a33.2,33.2,0,0,0,1.714-2.9h-4.2v-2.088h15.47v2.088h-3.585a31.38,31.38,0,0,1,3.62,4.3l-2.6.974a8.922,8.922,0,0,0-.626-1M143.943,109H150.4a17.134,17.134,0,0,1-3.228-2.975A16.921,16.921,0,0,1,143.943,109m8.143,2.019h-9.657v-.992a17.866,17.866,0,0,1-2.923,1.522l-1.139-1.853a19.671,19.671,0,0,0,4.259-2.523,12.22,12.22,0,0,0,3.276-3.28h2.358a18.312,18.312,0,0,0,7.752,5.525l-1.27,2.045a18.1,18.1,0,0,1-2.654-1.34Z" transform="translate(-65.951 -0.166)"/><path class="a" d="M189.917,119.176h-10.78v-2.123H183.4V110.44h-3.41V108.4h3.41v-4.333h2.489V108.4h3.567v2.045h-3.567v6.613h4.028Zm-12.189.513h-2.192v-5.925a16.171,16.171,0,0,1-1.957,1.418l-.966-1.644a13.263,13.263,0,0,0,2.841-2.462,10.914,10.914,0,0,0,1.884-2.95h-3.95V106.2h2.183v-2.21h2.21v2.21h2.053l.461.478a13.951,13.951,0,0,1-2.332,4.516,30.358,30.358,0,0,0,2.775,2.166l-1.1,1.87q-1.053-.818-1.906-1.609Z" transform="translate(-82.275 -0.214)"/></g><g transform="translate(-313 -295)"><path class="b" d="M29.9,27.826,24.086,22.97l-5.072,6.049L29.9,38.153ZM8.008,27.533,31.157,0a7.99,7.99,0,0,1,.989,11.246v.006l-22.5,26.8H9.641A5.464,5.464,0,0,1,0,34.538V.627A5.466,5.466,0,0,1,8.008,5.458Z"/><g transform="translate(31.102 14.055)"><path class="c" d="M116.307,51.683,116.3,31.2h.009c4.3,0,7.994,3.283,8,7.329V56.513a5.459,5.459,0,0,1-8-4.831" transform="translate(-95.002 -31.196)"/><path class="c" d="M89.109,31.2v8L77.038,39.2V51.683a5.466,5.466,0,0,1-8.008,4.831V46.852l.008,0V36.966h0a6.179,6.179,0,0,1,1.6-4.167,5.442,5.442,0,0,1,3.854-1.6Z" transform="translate(-69.03 -31.196)"/></g><g transform="translate(52.399)"><path class="d" d="M124.215,17.338a.048.048,0,0,0,.043.027.049.049,0,0,0,.048-.048V5.458H124.3a5.459,5.459,0,0,0-8-4.831l.008,12.242c4.556,0,7.378,3.1,7.908,4.469" transform="translate(-116.299)"/><path class="d" d="M162.977,51.8l-5.41,6.447,9.842,8.246a8.409,8.409,0,0,0,11.835-1.038Z" transform="translate(-138.974 -28.46)"/><path class="d" d="M157.221,0l-23.15,27.543V39.364a5.486,5.486,0,0,0,1.634-1.308h.006l22.5-26.805v-.006A7.991,7.991,0,0,0,157.221,0" transform="translate(-126.064)"/></g></g></g></svg>