<svg id="グループ_4491" data-name="グループ 4491" xmlns="http://www.w3.org/2000/svg" xmlns:xlink="http://www.w3.org/1999/xlink" width="240" height="156.497" viewBox="0 0 240 156.497">
  <defs>
    <style>
      .cls-1 {
        fill: none;
      }

      .cls-2 {
        clip-path: url(#clip-path);
      }

      .cls-3 {
        fill: #006685;
      }

      .cls-4, .cls-6 {
        fill: #08acde;
      }

      .cls-4, .cls-5 {
        fill-rule: evenodd;
      }

      .cls-5 {
        fill: #f9c00d;
      }
    </style>
    <clipPath id="clip-path">
      <rect id="長方形_3451" data-name="長方形 3451" class="cls-1" width="240" height="156.497"/>
    </clipPath>
  </defs>
  <g id="グループ_4490" data-name="グループ 4490" class="cls-2">
    <path id="パス_27506" data-name="パス 27506" class="cls-3" d="M45.349,135.406H39.355V124.214q0-4.694-1.037-5.83a4.373,4.373,0,0,0-3.366-1.135,9.252,9.252,0,0,0-4.674,1.727v16.431H24.321V112.943h5.956v3.142a21.529,21.529,0,0,1,4.471-3.026,8.6,8.6,0,0,1,3.5-.737q7.1,0,7.1,8.322Z" transform="translate(4.059 18.743)"/>
    <path id="パス_27507" data-name="パス 27507" class="cls-3" d="M73.884,136.286H65.969l-9.622-12.105-2.173,2.464v9.641H47.812V107.052h6.4v13.889l11.658-13.889h7.449l-11.95,13.579Z" transform="translate(7.979 17.864)"/>
    <path id="パス_27508" data-name="パス 27508" class="cls-3" d="M76.172,126.388a35.025,35.025,0,0,1-2.89,4.831l-2.91-2.91a35.551,35.551,0,0,0,3.531-6.449,31,31,0,0,0,2.211-6.741H71.768V111.18h4.4v-7.333H81.1v7.333h2.716v3.938H81.1v2.89a26.885,26.885,0,0,0,3.744,3.471l-1.784,3.977a14.468,14.468,0,0,1-1.96-1.862v15.481H76.172Zm17.439,2.755a35.445,35.445,0,0,1-8.341,7.992l-2.89-3.491a41.409,41.409,0,0,0,5.489-5.218,35.843,35.843,0,0,0,4.152-5.607H85v-4.636h8.536V113.9H89.964a15.572,15.572,0,0,1-2.425,4.132l-3.977-2.018a26.917,26.917,0,0,0,2.492-5.461,28.3,28.3,0,0,0,1.445-6.1l4.967.427a34.974,34.974,0,0,1-.893,4.481h1.959v-5.645h5.335v5.645h7.972V113.9H98.868v4.287h8.981v4.636h-7.508a39.157,39.157,0,0,0,3.182,4.394,51.3,51.3,0,0,0,5.993,5.79l-3.433,4.249a41.651,41.651,0,0,1-7.333-8.477V138.8H93.61Z" transform="translate(11.743 17.307)"/>
    <path id="パス_27509" data-name="パス 27509" class="cls-3" d="M127.43,130.995l-.04,4.578q-1.339.389-9.466,1.32t-11.465,1.183l-.834-4.851q2.424-.115,8.109-.621V122.576h-6.557v-4.442h17.711v4.442h-5.762v9.505q6.558-.7,8.3-1.086m14.51-15.927H131.058a63.763,63.763,0,0,0,.669,6.79,28.891,28.891,0,0,0,1.3,5.246,17.566,17.566,0,0,0,1.882,3.851,7.967,7.967,0,0,0,1.366,1.747,1.137,1.137,0,0,0,.524.174.636.636,0,0,0,.679-.621q.1-.62.408-6.537l4.364.911q-.214,5.239-.495,7.935t-1.291,3.568a4.128,4.128,0,0,1-2.793.874,5.925,5.925,0,0,1-3.181-.9,15.15,15.15,0,0,1-3.54-3.657,22.255,22.255,0,0,1-3.356-6.77,60.351,60.351,0,0,1-1.91-12.609H105.548v-4.4H125.49q.021-.989.02-2.754l-.02-4.249h5.452v7h4.539q-1.32-1.745-3.88-4.811l3.977-2.308a62.17,62.17,0,0,1,5,5.762l-2.095,1.357h3.453Z" transform="translate(17.613 17.279)"/>
    <path id="パス_27510" data-name="パス 27510" class="cls-3" d="M152.74,133.573q7.663-.408,12.182-.834-1.9-2.328-3.394-3.938l2.58-1.4h-7.682q-1.708,3.163-3.686,6.169m15.421,3.356q-9.214,1.027-26.052,1.882l-.834-4.772,5.063-.175a74.015,74.015,0,0,0,3.822-6.46h-9.37v-4.655h34.492V127.4h-7.993a69.967,69.967,0,0,1,8.07,9.584l-5.8,2.173a19.887,19.887,0,0,0-1.4-2.231M150.8,115.28h14.393a38.2,38.2,0,0,1-7.2-6.634,37.728,37.728,0,0,1-7.2,6.634m18.157,4.5H147.424V117.57a39.836,39.836,0,0,1-6.518,3.394l-2.54-4.132a43.858,43.858,0,0,0,9.495-5.626q5.324-3.957,7.3-7.313h5.257a40.829,40.829,0,0,0,17.285,12.318l-2.832,4.559a40.361,40.361,0,0,1-5.917-2.987Z" transform="translate(23.089 17.337)"/>
    <path id="パス_27511" data-name="パス 27511" class="cls-3" d="M211.2,137.844H187.161v-4.733h9.505V118.368h-7.6v-4.559h7.6v-9.661h5.548v9.661h7.953v4.559h-7.953v14.743H211.2Zm-27.178,1.145H179.13v-13.21a36.057,36.057,0,0,1-4.364,3.162l-2.154-3.666a29.571,29.571,0,0,0,6.334-5.49,24.334,24.334,0,0,0,4.2-6.576h-8.806v-4.287h4.868v-4.928h4.928v4.928h4.578l1.028,1.067a31.107,31.107,0,0,1-5.2,10.069,67.687,67.687,0,0,0,6.188,4.83l-2.463,4.17q-2.347-1.824-4.249-3.588Z" transform="translate(28.804 17.354)"/>
    <path id="パス_27512" data-name="パス 27512" class="cls-4" d="M77.442,72.066,62.38,59.489,49.244,75.156l28.2,23.655Zm-56.7-.758L80.693,0a20.694,20.694,0,0,1,2.56,29.125v.016L24.984,98.562h-.015A14.15,14.15,0,0,1,0,89.449V1.624A14.155,14.155,0,0,1,20.739,14.135Z"/>
    <path id="パス_27513" data-name="パス 27513" class="cls-5" d="M116.32,84.254,116.3,31.2h.024c11.131,0,20.7,8.5,20.713,18.982V96.765A14.137,14.137,0,0,1,116.32,84.254" transform="translate(19.407 5.206)"/>
    <path id="パス_27514" data-name="パス 27514" class="cls-5" d="M121.033,31.2V51.913l-31.264.022V84.254A14.155,14.155,0,0,1,69.03,96.765V71.742l.021-.012V46.14h0a16,16,0,0,1,4.132-10.791A14.094,14.094,0,0,1,83.165,31.2Z" transform="translate(11.519 5.206)"/>
    <path id="パス_27515" data-name="パス 27515" class="cls-6" d="M136.8,44.9a.123.123,0,0,0,.112.069.128.128,0,0,0,.125-.124V14.135h-.022A14.137,14.137,0,0,0,116.3,1.624l.021,31.705c11.8,0,19.108,8.039,20.481,11.573" transform="translate(19.407)"/>
    <path id="パス_27516" data-name="パス 27516" class="cls-6" d="M171.579,51.8,157.567,68.5l25.489,21.356a21.777,21.777,0,0,0,30.65-2.688Z" transform="translate(26.294 8.644)"/>
    <path id="パス_27517" data-name="パス 27517" class="cls-6" d="M194.026,0,134.071,71.333v30.615a14.208,14.208,0,0,0,4.231-3.386h.015L196.586,29.14v-.015A20.7,20.7,0,0,0,194.026,0" transform="translate(22.373)"/>
  </g>
</svg>
